<svg xmlns="http://www.w3.org/2000/svg" xmlns:xlink="http://www.w3.org/1999/xlink" version="1.1" x="0px" y="0px" viewBox="0 0 100 125" style="enable-background:new 0 0 100 100;" xml:space="preserve"><path d="M42,50.6c0,0.1,0,0.3,0,0.4c0,0.5-0.2,1-0.6,1.4C41,52.8,40.5,53,40,53c-0.5,0-1-0.2-1.4-0.6C38.2,52,38,51.5,38,51  c0-0.1,0-0.3,0-0.4c0-0.1,0.1-0.2,0.1-0.4c0-0.1,0.1-0.2,0.2-0.3c0.1-0.1,0.1-0.2,0.2-0.3c0.7-0.8,2.1-0.8,2.8,0  c0.1,0.1,0.2,0.2,0.2,0.3c0.1,0.1,0.1,0.2,0.2,0.3C41.9,50.4,41.9,50.5,42,50.6z M59.6,49c-0.1,0-0.2,0.1-0.4,0.1  c-0.1,0-0.2,0.1-0.3,0.2c-0.1,0.1-0.2,0.1-0.3,0.2C58.2,50,58,50.5,58,51c0,0.1,0,0.3,0,0.4c0,0.1,0.1,0.3,0.1,0.4  c0.1,0.1,0.1,0.2,0.2,0.3c0.1,0.1,0.2,0.2,0.3,0.3C59,52.8,59.5,53,60,53s1-0.2,1.4-0.6c0.1-0.1,0.2-0.2,0.2-0.3  c0.1-0.1,0.1-0.2,0.2-0.3c0-0.1,0.1-0.2,0.1-0.4c0-0.1,0-0.3,0-0.4c0-0.5-0.2-1-0.6-1.4C61,49.1,60.3,48.9,59.6,49z M94.9,72.5  c-0.2,0.9-1,1.5-1.9,1.5c-0.2,0-0.3,0-0.5-0.1l-12-3.1C76.3,83.7,64.2,93,50,93c-14.2,0-26.3-9.3-30.5-22.2l-12,3.1  C7.3,74,7.2,74,7,74c-0.9,0-1.7-0.6-1.9-1.5c-0.3-1.1,0.4-2.2,1.4-2.4l12.1-3.1C18.2,65,18,63,18,61v-6.1l-11.5-3  c-1.1-0.3-1.7-1.4-1.4-2.4s1.4-1.7,2.4-1.4L18,50.8V45c0-1.6,0.2-3.1,0.6-4.6L23,8.7c0,0,0,0,0,0c0-0.1,0-0.2,0.1-0.2  c0,0,0-0.1,0-0.1c0-0.1,0.1-0.1,0.1-0.2c0-0.1,0-0.1,0.1-0.2c0,0,0.1-0.1,0.1-0.1c0-0.1,0.1-0.1,0.1-0.2c0,0,0,0,0,0  c0,0,0.1-0.1,0.1-0.1c0.1-0.1,0.1-0.1,0.2-0.1c0,0,0.1-0.1,0.2-0.1c0.1,0,0.1-0.1,0.2-0.1c0.1,0,0.1,0,0.2-0.1  c0.1,0,0.1-0.1,0.2-0.1c0.1,0,0.1,0,0.2,0c0.1,0,0.1,0,0.2,0c0.1,0,0.1,0,0.2,0c0.1,0,0.1,0,0.2,0c0,0,0,0,0,0c0.1,0,0.1,0,0.2,0.1  c0.1,0,0.1,0,0.2,0c0.1,0,0.1,0.1,0.2,0.1c0.1,0,0.1,0.1,0.2,0.1c0,0,0.1,0.1,0.1,0.1c0.1,0,0.1,0.1,0.2,0.1c0,0,0,0,0,0L46.8,27  h6.4L73.6,7.6c0,0,0,0,0,0c0.1-0.1,0.1-0.1,0.2-0.2c0,0,0.1-0.1,0.1-0.1c0.1,0,0.1-0.1,0.2-0.1c0.1,0,0.1-0.1,0.2-0.1  c0.1,0,0.1,0,0.2,0c0.1,0,0.1,0,0.2-0.1c0,0,0,0,0,0c0.1,0,0.1,0,0.2,0C75,7,75,7,75.1,7c0.1,0,0.2,0,0.2,0c0,0,0.1,0,0.1,0  c0.1,0,0.2,0,0.2,0.1c0,0,0.1,0,0.1,0.1c0.1,0,0.1,0.1,0.2,0.1c0,0,0.1,0.1,0.1,0.1c0.1,0.1,0.1,0.1,0.2,0.2c0,0,0.1,0,0.1,0.1  c0,0,0,0,0,0c0.1,0.1,0.1,0.1,0.2,0.2c0,0,0.1,0.1,0.1,0.1c0,0.1,0.1,0.1,0.1,0.2c0,0.1,0.1,0.1,0.1,0.2c0,0.1,0,0.1,0,0.2  c0,0.1,0,0.1,0.1,0.2c0,0,0,0,0,0l4.4,31.7c0.4,1.5,0.6,3,0.6,4.6v5.8l10.5-2.7c1.1-0.3,2.2,0.4,2.4,1.4c0.3,1.1-0.4,2.2-1.4,2.4  l-11.5,3V61c0,2-0.2,4-0.6,5.9l12.1,3.1C94.6,70.3,95.2,71.4,94.9,72.5z M59,27h5c4.7,0,8.9,1.8,12.1,4.7l-2.6-18.6L59,27z   M23.9,31.7C27.1,28.8,31.3,27,36,27h5L26.4,13.1L23.9,31.7z M56.1,63H43.9l6.1,8.6L56.1,63z M76.6,69.8l-7.1-1.8  c-1.1-0.3-1.7-1.4-1.4-2.4c0.3-1.1,1.4-1.7,2.4-1.4l7.1,1.8c0.3-1.6,0.4-3.2,0.4-4.9v-5l-7.5,2C70.3,58,70.2,58,70,58  c-0.9,0-1.7-0.6-1.9-1.5c-0.3-1.1,0.4-2.2,1.4-2.4l8.5-2.2v-6.7l-0.6-4C75.8,35.3,70.4,31,64,31H36c-6.4,0-11.8,4.3-13.4,10.1  l-0.6,4v6.7l8.5,2.2c1.1,0.3,1.7,1.4,1.4,2.4c-0.2,0.9-1,1.5-1.9,1.5c-0.2,0-0.3,0-0.5-0.1L22,56v5c0,1.7,0.2,3.3,0.4,4.9l7.1-1.8  c1.1-0.3,2.2,0.4,2.4,1.4s-0.4,2.2-1.4,2.4l-7.1,1.8C26.9,80.3,36.5,88.1,48,88.9V75.6l-9.6-13.5c-0.4-0.6-0.5-1.4-0.2-2.1  s1-1.1,1.8-1.1h20c0.7,0,1.4,0.4,1.8,1.1s0.3,1.5-0.2,2.1L52,75.6v13.3C63.5,88.1,73.1,80.3,76.6,69.8z"/><text x="0" y="115" fill="#000000" font-size="5px" font-weight="bold" font-family="'Helvetica Neue', Helvetica, Arial-Unicode, Arial, Sans-serif">Created by IconMark</text><text x="0" y="120" fill="#000000" font-size="5px" font-weight="bold" font-family="'Helvetica Neue', Helvetica, Arial-Unicode, Arial, Sans-serif">from the Noun Project</text></svg>