<svg xmlns="http://www.w3.org/2000/svg" xmlns:xlink="http://www.w3.org/1999/xlink" version="1.1" x="0px" y="0px" viewBox="0 0 512 640" style="enable-background:new 0 0 512 512;" xml:space="preserve"><g><g><g><path d="M52.419,291.007c-0.331,0-0.663-0.017-0.996-0.05c-12.484-1.248-21.106-7.745-26.357-19.861     c-5.591-12.899-7.699-32.979-6.632-63.19c0.077-2.201,0.321-4.401,0.724-6.541c5.995-31.859,32.131-61.061,84.745-94.684     c2.527-1.615,5.647-2.01,8.498-1.077c2.851,0.934,5.132,3.098,6.214,5.896c7.423,19.193,14.847,38.476,22.271,57.759     c7.428,19.294,14.855,38.587,22.283,57.791c1.843,4.765-0.203,10.154-4.744,12.496c-21.215,10.939-45.169,16.486-71.196,16.486     c-2.25,0-4.545-0.042-6.842-0.123c-13.219,2.811-18.277,9.879-17.97,24.894c0.058,2.86-1.111,5.608-3.213,7.55     C57.348,290.067,54.922,291.007,52.419,291.007z M104.424,130.262c-52.058,35.158-62.513,58.339-65.611,74.804     c-0.218,1.155-0.349,2.347-0.392,3.544c-1.183,33.506,1.942,48.893,5.842,56.04c5.185-18.97,20.29-26.107,33.458-28.604     c0.75-0.143,1.515-0.2,2.28-0.167c2.424,0.101,4.856,0.152,7.227,0.152c19.817,0,37.552-3.426,53.932-10.444     c-6.313-16.344-12.627-32.743-18.94-49.143C116.289,161.036,110.356,145.625,104.424,130.262z"/></g><g><path d="M60.008,231.297c-0.763,0-1.537-0.088-2.311-0.271c-5.375-1.272-8.7-6.66-7.429-12.034     c11.829-49.985,75.952-57.352,78.676-57.642c5.504-0.577,10.417,3.397,11,8.889c0.583,5.492-3.397,10.417-8.889,11     c-0.509,0.056-52.768,6.2-61.324,42.358C68.643,228.198,64.539,231.297,60.008,231.297z"/></g><g><path d="M240,151.295c-11.028,0-20-8.972-20-20s8.972-20,20-20s20,8.972,20,20S251.028,151.295,240,151.295z"/></g><g><path d="M249.999,491.295c-3.945,0-7.53-2.322-9.137-5.938l-28.205-63.46l-12.956,51.824c-0.936,3.742-3.941,6.612-7.722,7.376     c-3.781,0.767-7.666-0.716-9.979-3.802l-30-40c-1.105-1.474-1.782-3.225-1.956-5.059     c-1.176-12.427-10.327-120.453,21.306-169.006c-3.182-21.954-13.431-22.391-17.934-22.583c-3.972-0.169-7.467-2.675-8.901-6.383     c-7.421-19.187-14.843-38.465-22.265-57.743c-7.43-19.299-14.859-38.598-22.289-57.807c-1.381-3.57-0.603-7.616,2.005-10.419     c23.257-24.998,45.985-43.393,69.481-56.238C198.223,37.421,226.583,30,255.743,30c17.744,0,36.3,2.731,55.155,8.119     c0.088,0.025,0.175,0.051,0.262,0.079c64.118,20.23,109.285,65.093,138.084,137.152c26.826,67.122,36.338,151.162,42.09,224.568     l8.566,59.964c0.633,4.427-1.751,8.735-5.837,10.552c-4.09,1.817-8.882,0.7-11.745-2.735l-35.6-42.721l-6.818,47.732     c-0.535,3.75-3.144,6.875-6.737,8.073c-3.593,1.195-7.555,0.263-10.233-2.416l-30.943-30.943l-23.41,39.017     c-1.883,3.137-5.292,4.985-8.981,4.848c-3.654-0.148-6.937-2.28-8.558-5.56l-25.654-51.88l-5.479,38.844     c-0.53,3.754-3.137,6.886-6.731,8.088c-3.596,1.201-7.562,0.269-10.242-2.413l-29.276-29.276l-14.367,35.919     c-1.493,3.733-5.077,6.209-9.097,6.284C250.125,491.294,250.062,491.295,249.999,491.295z M320.004,390.404     c3.756,0,7.255,2.121,8.96,5.568l31.883,64.475l20.578-34.297c1.585-2.641,4.297-4.404,7.354-4.78     c3.057-0.383,6.115,0.676,8.293,2.854l25.857,25.858l7.172-50.201c0.559-3.912,3.369-7.128,7.17-8.206     c3.806-1.08,7.883,0.183,10.412,3.218l27.433,32.92l-3.626-25.382c-0.03-0.21-0.054-0.422-0.07-0.634     c-5.632-71.982-14.877-154.296-40.747-219.025c-26.413-66.089-67.431-107.128-125.4-125.46C288.25,52.46,271.587,50,255.743,50     c-47.729,0-90.711,21.446-134.851,67.389c6.675,17.271,13.349,34.61,20.023,51.947c6.706,17.419,13.412,34.839,20.118,52.191     c12.192,2.641,27.549,12.257,30.65,43.271c0.247,2.464-0.43,4.931-1.898,6.925c-23.87,32.416-23.67,114.466-20.083,155.843     l15.691,20.922l14.905-59.617c1.035-4.142,4.584-7.168,8.836-7.538c4.255-0.359,8.27,2.002,10.003,5.901l30.377,68.349     l11.2-28.001c1.249-3.121,3.981-5.406,7.274-6.082c3.296-0.671,6.705,0.348,9.082,2.725l25.826,25.827l7.2-51.042     c0.613-4.343,3.983-7.779,8.313-8.477C318.944,390.446,319.477,390.404,320.004,390.404z"/></g><g><path d="M469.991,310.002c-1.553,0-3.128-0.362-4.602-1.128c-2.486-1.292-61.125-31.858-82.217-51.567     c-18.839-17.604-31.409-59.782-32.78-64.534c-1.532-5.306,1.528-10.85,6.835-12.381c5.302-1.531,10.847,1.527,12.38,6.832l0,0     c3.313,11.449,14.659,43.732,27.22,55.469c19.111,17.858,77.199,48.129,77.783,48.433c4.901,2.547,6.81,8.584,4.264,13.484     C477.093,308.038,473.604,310.002,469.991,310.002z"/></g><g><path d="M250.012,350.001c-0.321,0-0.644-0.016-0.97-0.047c-5.498-0.529-9.525-5.415-8.996-10.913     c3.519-36.533-61.388-63.706-62.045-63.971c-5.124-2.062-7.606-7.886-5.545-13.01c2.06-5.124,7.884-7.608,13.01-5.545     c3.248,1.307,79.481,32.595,74.488,84.443C259.456,346.13,255.103,350.001,250.012,350.001z"/></g><g><path d="M319.997,410.405c-5.461,0-9.924-4.391-9.996-9.868c-0.004-0.306-0.495-31.233-6.741-63.302     c-7.59-38.971-20.411-62.995-36.103-67.648c-54.521-16.168-57.065-57.374-57.146-59.12l19.979-0.934l-0.006-0.111     c0.083,1.179,2.481,29.016,42.86,40.99c23.906,7.089,40.762,35.102,50.1,83.261c6.553,33.799,7.039,65.275,7.057,66.6     c0.073,5.522-4.345,10.058-9.867,10.131C320.087,410.405,320.042,410.405,319.997,410.405z"/></g><g><path d="M265.608,187.344c-41.677,0-69.564-17.974-71.114-18.996c-4.61-3.041-5.883-9.243-2.842-13.854     c3.037-4.603,9.223-5.878,13.831-2.857c0.267,0.171,11.294,7.208,29.192,11.762c23.899,6.079,48.176,5.109,72.163-2.886     c5.24-1.746,10.902,1.085,12.649,6.325c1.746,5.239-1.086,10.902-6.325,12.649C296.016,185.203,279.989,187.344,265.608,187.344z     "/></g><g><path d="M210.009,107.299c-3.222,0-6.385-1.554-8.314-4.431c-3.076-4.587-1.852-10.799,2.735-13.875     c12.064-8.091,28.368-15.441,57.829-8.612c5.38,1.248,8.73,6.62,7.482,12c-1.246,5.38-6.623,8.733-12,7.483     c-20.728-4.807-31.852-1.182-42.171,5.739C213.86,106.75,211.924,107.299,210.009,107.299z"/></g><g><path d="M390.001,441.298c-1.046,0-2.111-0.166-3.158-0.515c-5.241-1.744-8.075-7.405-6.331-12.646     c4.685-14.078-11.587-34.942-17.657-41.142c-3.863-3.946-3.797-10.277,0.149-14.142c3.945-3.864,10.276-3.798,14.142,0.149     c3.269,3.339,31.668,33.428,22.343,61.448C398.093,438.646,394.19,441.298,390.001,441.298z"/></g></g></g><text x="0" y="527" fill="#000000" font-size="5px" font-weight="bold" font-family="'Helvetica Neue', Helvetica, Arial-Unicode, Arial, Sans-serif">Created by Flatart</text><text x="0" y="532" fill="#000000" font-size="5px" font-weight="bold" font-family="'Helvetica Neue', Helvetica, Arial-Unicode, Arial, Sans-serif">from the Noun Project</text></svg>