<svg xmlns="http://www.w3.org/2000/svg" xmlns:xlink="http://www.w3.org/1999/xlink" version="1.1" x="0px" y="0px" viewBox="0 0 56 70" enable-background="new 0 0 56 56" xml:space="preserve"><path d="M10.3723755,28.9997559c-0.00177,0.1008301-0.0154419,0.1987305-0.0154419,0.3000488  c0,9.5678711,7.9165039,17.3515625,17.6474609,17.3515625s17.6474609-7.7836914,17.6474609-17.3515625  c0-0.1013184-0.0136719-0.1992188-0.0154419-0.3000488C49.9509277,27.8288574,53,23.9005127,53,19.3486328  c0-5.5141602-4.4814453-10-9.9902344-10c-3.1998291,0-6.1237793,1.4995117-8.0045776,4.0303955  c-2.1482544-0.9168701-4.5136108-1.4312744-7.0007935-1.4312744c-2.4883423,0-4.8546753,0.5150146-7.0037231,1.4326172  C19.1218262,10.8483887,16.1998901,9.3486328,13,9.3486328c-5.5141602,0-10,4.4858398-10,10  C3,23.8996582,6.0525513,27.828125,10.3723755,28.9997559z M11.6845703,22.7165527  c-1.3585815-0.5336914-2.3144531-1.8620605-2.3144531-3.3679199c0-2.0073242,1.628418-3.6401367,3.6298828-3.6401367  c1.0303345,0,1.9993896,0.4477539,2.6793213,1.1953125C13.9744873,18.5429688,12.6063843,20.515625,11.6845703,22.7165527z   M40.3297119,16.9040527C41.0084839,16.15625,41.9742432,15.7084961,43,15.7084961  c2.0073242,0,3.6401367,1.6328125,3.6401367,3.6401367c0,1.5058594-0.9564819,2.835083-2.3157349,3.3685303  C43.4025879,20.5159912,42.0345459,18.5432129,40.3297119,16.9040527z M43.0097656,11.3486328  c4.4057617,0,7.9902344,3.5888672,7.9902344,8c0,3.5129395-2.2713623,6.5549316-5.5285034,7.607666  c-0.1109009-0.802002-0.2747803-1.5861816-0.4935303-2.3498535c2.1471558-0.8093262,3.6621704-2.8952637,3.6621704-5.2578125  c0-3.1098633-2.5302734-5.6401367-5.6401367-5.6401367c-1.6158447,0-3.1347046,0.7138672-4.1900024,1.9024658  c-0.633667-0.4847412-1.3000488-0.9276123-1.9981079-1.3250732C38.3198242,12.430542,40.5684204,11.3486328,43.0097656,11.3486328z   M43.6518555,29.2998047c0,8.4648438-7.0195312,15.3515625-15.6474609,15.3515625s-15.6474609-6.8867188-15.6474609-15.3515625  c0-8.465332,7.0195312-15.3520508,15.6474609-15.3520508S43.6518555,20.8344727,43.6518555,29.2998047z M13,11.3486328  c2.4407959,0,4.687439,1.0823975,6.1937866,2.9390869c-0.6968384,0.3969727-1.3620605,0.8392334-1.9946289,1.322998  C16.1427612,14.4223633,14.6208496,13.7084961,13,13.7084961c-3.1044922,0-5.6298828,2.5302734-5.6298828,5.6401367  c0,2.3619385,1.5147705,4.4475098,3.6608887,5.2572021c-0.2188721,0.7637939-0.3828125,1.5482178-0.4937134,2.3503418  C7.2749634,25.902832,5,22.8604736,5,19.3486328C5,14.9375,8.5888672,11.3486328,13,11.3486328z"/><path d="M28.0126953,40.7348633c2.8608398,0,5.1884766-2.3276367,5.1884766-5.1884766v-5.9453125  c0-2.8608398-2.3276367-5.1884766-5.1884766-5.1884766s-5.1884766,2.3276367-5.1884766,5.1884766v5.9453125  C22.8242188,38.4072266,25.1518555,40.7348633,28.0126953,40.7348633z M24.8242188,29.6010742  c0-1.7583008,1.4301758-3.1884766,3.1884766-3.1884766s3.1884766,1.4301758,3.1884766,3.1884766v5.9453125  c0,1.7583008-1.4301758,3.1884766-3.1884766,3.1884766s-3.1884766-1.4301758-3.1884766-3.1884766V29.6010742z"/><path d="M37.6728516,30.2988281c1.6347656,0,2.9648438-1.3300781,2.9648438-2.9648438  c0-1.6352539-1.3300781-2.965332-2.9648438-2.965332s-2.9648438,1.3300781-2.9648438,2.965332  C34.7080078,28.96875,36.0380859,30.2988281,37.6728516,30.2988281z M37.6728516,26.3686523  c0.5322266,0,0.9648438,0.4331055,0.9648438,0.965332s-0.4326172,0.9648438-0.9648438,0.9648438  s-0.9648438-0.4326172-0.9648438-0.9648438C36.7080078,26.7924805,37.1318359,26.3686523,37.6728516,26.3686523z"/><path d="M15.6730347,26.9747314c-0.0014648,0.0223389-0.0128784,0.0411377-0.0128784,0.0638428  c0,0.0075684,0.0040894,0.0136719,0.0042725,0.0212402c-0.0085449,0.0916748-0.02771,0.1802979-0.02771,0.2741699  c0,1.6347656,1.3300781,2.9648438,2.9648438,2.9648438s2.9648438-1.3300781,2.9648438-2.9648438  c0-1.6352539-1.3300781-2.965332-2.9648438-2.965332C17.0897827,24.3686523,15.8527222,25.5102539,15.6730347,26.9747314z   M18.6015625,26.3686523c0.5322266,0,0.9648438,0.4331055,0.9648438,0.965332s-0.4326172,0.9648438-0.9648438,0.9648438  s-0.9648438-0.4326172-0.9648438-0.9648438C17.6367188,26.7924805,18.0605469,26.3686523,18.6015625,26.3686523z"/><text x="0" y="71" fill="#000000" font-size="5px" font-weight="bold" font-family="'Helvetica Neue', Helvetica, Arial-Unicode, Arial, Sans-serif">Created by rivercon</text><text x="0" y="76" fill="#000000" font-size="5px" font-weight="bold" font-family="'Helvetica Neue', Helvetica, Arial-Unicode, Arial, Sans-serif">from the Noun Project</text></svg>